<svg width="13" height="13" viewBox="0 0 13 13" xmlns="http://www.w3.org/2000/svg" xmlns:xlink="http://www.w3.org/1999/xlink"><title>4AB3AD9C-E284-4882-AB6C-23095F06F15F</title><defs><path id="a" d="M0 12.45V.148h12.877V12.45H0z"/></defs><g fill="none" fill-rule="evenodd"><g transform="translate(0 .002)"><mask id="b" fill="#fff"><use xlink:href="#a"/></mask><path d="M11.75 6.287l-.043-.002c0-.442.007-.883-.002-1.325-.008-.451-.03-.903-.049-1.354-.058-1.39-.977-2.294-2.427-2.314a194.26 194.26 0 0 0-5.594 0c-1.435.021-2.383.921-2.407 2.292a156.09 156.09 0 0 0 0 5.388c.022 1.374.964 2.278 2.4 2.3 1.875.03 3.751.03 5.627 0 1.316-.02 2.171-.72 2.337-1.975.131-.994.111-2.006.158-3.01M9.08 12.45H3.8c-.147-.021-.293-.053-.44-.062-1.476-.082-2.682-.966-3.11-2.319C.124 9.682.08 9.273 0 8.874v-5.18c.022-.13.053-.258.063-.388C.2 1.588 1.528.253 3.323.196 5.397.128 7.477.135 9.553.193c1.58.044 2.765 1.059 3.143 2.54.086.335.122.68.181 1.021v5.057c-.022.14-.055.278-.064.418-.09 1.493-1.116 2.686-2.634 3.038-.361.084-.733.123-1.1.182" fill="#F7971C" mask="url(#b)"/></g><path d="M8.568 6.275c-.002-1.127-.946-2.029-2.124-2.03-1.198 0-2.138.9-2.136 2.048.001 1.14.952 2.036 2.154 2.032 1.17-.005 2.108-.917 2.106-2.05M6.45 9.457c-1.827.012-3.319-1.404-3.329-3.16-.01-1.748 1.47-3.176 3.303-3.188 1.823-.013 3.31 1.402 3.325 3.163.015 1.749-1.46 3.172-3.299 3.185m4.202-6.46c-.003.408-.353.748-.774.751-.426.003-.803-.364-.792-.77.011-.406.37-.735.796-.73.43.005.772.338.77.749" fill="#F7971C"/></g></svg>