<?xml version="1.0" standalone="no"?>
<!DOCTYPE svg PUBLIC "-//W3C//DTD SVG 20010904//EN"
 "http://www.w3.org/TR/2001/REC-SVG-20010904/DTD/svg10.dtd">
<svg version="1.0" xmlns="http://www.w3.org/2000/svg"
 width="16.000000pt" height="16.000000pt" viewBox="0 0 16.000000 16.000000"
 preserveAspectRatio="xMidYMid meet">
<metadata>
Created by potrace 1.11, written by Peter Selinger 2001-2013
</metadata>
<g transform="translate(0.000000,16.000000) scale(0.005263,-0.005263)"
fill="#000000" stroke="none">
<path d="M1153 2853 l-243 -186 0 -337 0 -336 25 0 25 0 0 323 0 322 108 83
c60 46 124 94 142 108 18 14 64 49 102 78 63 49 68 51 69 30 0 -13 1 -216 2
-452 2 -400 3 -429 19 -432 10 -1 20 2 24 7 3 5 5 209 6 454 0 245 3 447 7
449 5 3 377 -147 456 -184 11 -5 103 -43 205 -85 102 -42 189 -80 194 -85 7
-7 12 -2158 4 -2165 -1 -1 -122 -55 -268 -120 -146 -64 -283 -125 -305 -135
-57 -26 -224 -100 -262 -116 l-31 -14 0 363 c0 537 2 485 -26 480 l-24 -5 0
-400 c0 -220 -2 -401 -4 -403 -2 -2 -95 65 -208 150 l-205 152 -5 283 -5 283
-22 3 -23 4 0 -298 0 -297 243 -182 c133 -100 250 -185 258 -188 13 -5 135 43
254 101 17 8 176 79 355 159 l325 144 3 1119 2 1120 -72 30 c-40 17 -253 105
-472 196 -220 91 -402 166 -405 165 -3 0 -115 -84 -248 -186z"/>
<path d="M1101 1974 c-190 -39 -338 -178 -386 -361 -45 -172 9 -367 134 -486
191 -183 499 -189 694 -14 20 19 37 38 37 43 0 5 -29 38 -65 73 -70 69 -66 69
-120 15 -40 -40 -113 -75 -167 -81 -276 -28 -426 353 -221 562 55 55 114 78
198 79 59 1 78 -4 124 -29 29 -16 68 -46 85 -67 l32 -37 67 67 c37 37 67 71
67 74 0 14 -57 63 -110 96 -108 65 -249 90 -369 66z"/>
<path d="M1940 1963 c-24 -22 -38 -53 -66 -143 -74 -242 -136 -511 -130 -558
2 -10 14 -18 29 -20 31 -4 30 -6 127 220 39 90 75 172 80 183 24 51 72 214 77
261 7 64 -6 84 -53 84 -23 0 -44 -9 -64 -27z"/>
<path d="M1726 1179 c-61 -17 -91 -79 -66 -140 15 -35 37 -49 80 -49 42 0 67
15 85 50 22 42 18 94 -10 128 -9 10 -65 17 -89 11z"/>
</g>
</svg>
