<svg version="1" xmlns="http://www.w3.org/2000/svg" width="21.333" height="21.333" viewBox="0 0 16.000000 16.000000"><path d="M6.068.985l-1.279.979v3.542h.263V2.11l.569-.437c.316-.242.652-.495.747-.568.095-.074.337-.258.537-.41.332-.259.358-.27.363-.159l.01 2.38c.011 2.104.017 2.257.1 2.273.053.005.106-.01.127-.037.016-.026.026-1.1.032-2.39 0-1.289.015-2.352.036-2.363.027-.015 1.985.774 2.4.969.058.026.542.226 1.08.447.536.221.994.421 1.02.448.037.036.063 11.357.021 11.394-.005.005-.642.29-1.41.632-.769.336-1.49.657-1.605.71-.3.137-1.18.526-1.38.61l-.162.074v-1.91c0-2.826.01-2.553-.137-2.526l-.127.026v2.105c0 1.158-.01 2.11-.02 2.121-.011.01-.5-.342-1.095-.79l-1.08-.8-.026-1.489-.026-1.49-.116-.015-.12-.021v3.132l1.278.958c.7.527 1.316.974 1.358.99.069.026.71-.227 1.337-.532.09-.042.926-.416 1.868-.837l1.71-.758.017-5.889.01-5.894-.379-.158c-.21-.09-1.331-.553-2.484-1.032C8.347.395 7.389 0 7.373.006c-.015 0-.605.442-1.305.979z"/><path d="M5.795 5.61c-1 .206-1.78.938-2.032 1.9-.237.906.047 1.932.705 2.559 1.006.963 2.627.994 3.653.073.105-.1.195-.2.195-.226 0-.026-.153-.2-.343-.384-.368-.363-.347-.363-.631-.08-.21.211-.595.396-.879.427-1.453.147-2.242-1.858-1.163-2.958.29-.29.6-.41 1.042-.415.31-.006.41.02.653.152.152.084.357.242.447.353l.168.195.353-.353c.195-.195.353-.374.353-.39 0-.073-.3-.331-.58-.505a2.836 2.836 0 0 0-1.941-.347zm4.415.059c-.126.116-.2.279-.347.752-.39 1.274-.716 2.69-.684 2.937.01.053.073.095.152.105.163.021.158.032.669-1.158.205-.473.394-.905.42-.963.127-.268.38-1.126.406-1.373.037-.337-.032-.442-.279-.442a.493.493 0 0 0-.337.142zM9.084 9.795c-.321.09-.479.416-.347.737.079.184.194.258.42.258.222 0 .353-.08.448-.264a.623.623 0 0 0-.053-.673c-.047-.053-.342-.09-.468-.058z"/></svg>